<svg width="38" height="36" viewBox="0 0 38 36" fill="none" xmlns="http://www.w3.org/2000/svg">
<g filter="url(#filter0_d_24_49)">
<path fill-rule="evenodd" clip-rule="evenodd" d="M11 0C8.79086 0 7 1.79086 7 4V24C7 26.2091 8.79086 28 11 28H33C35.2091 28 37 26.2091 37 24V4C37 1.79086 35.2091 0 33 0H11ZM21.1319 13.1897V10.3814H22.77V13.1897H25.7789V14.7186H22.77V17.527H21.1319V14.7186H18.1229V13.1897H21.1319ZM16.1421 19.3757C12.9299 16.3776 12.9299 11.5307 16.1421 8.53263C19.3544 5.53452 24.5475 5.53452 27.7597 8.53263C30.972 11.5307 30.972 16.3776 27.7597 19.3757C24.5475 22.3738 19.3544 22.3738 16.1421 19.3757ZM17.3039 18.2914C19.8656 20.6823 24.0363 20.6823 26.598 18.2914C29.1597 15.9005 29.1597 12.0078 26.598 9.61694C24.0363 7.22604 19.8656 7.22604 17.3039 9.61694C14.7422 12.0078 14.7422 15.9005 17.3039 18.2914Z" fill="#434343"/>
</g>
<defs>
<filter id="filter0_d_24_49" x="0" y="0" width="38" height="36" filterUnits="userSpaceOnUse" color-interpolation-filters="sRGB">
<feFlood flood-opacity="0" result="BackgroundImageFix"/>
<feColorMatrix in="SourceAlpha" type="matrix" values="0 0 0 0 0 0 0 0 0 0 0 0 0 0 0 0 0 0 127 0" result="hardAlpha"/>
<feOffset dx="-3" dy="4"/>
<feGaussianBlur stdDeviation="2"/>
<feComposite in2="hardAlpha" operator="out"/>
<feColorMatrix type="matrix" values="0 0 0 0 0.654167 0 0 0 0 0.654167 0 0 0 0 0.654167 0 0 0 0.2 0"/>
<feBlend mode="normal" in2="BackgroundImageFix" result="effect1_dropShadow_24_49"/>
<feBlend mode="normal" in="SourceGraphic" in2="effect1_dropShadow_24_49" result="shape"/>
</filter>
</defs>
</svg>
