<svg width="15" height="17" viewBox="0 0 15 17" fill="none" xmlns="http://www.w3.org/2000/svg">
<path d="M14.0625 4.43783H12.3656C11.9438 3.6841 11.3625 3.03666 10.6594 2.54384L11.5312 1.64516C11.8969 1.2683 11.8969 0.659514 11.5312 0.282649C11.1656 -0.0942163 10.575 -0.0942163 10.2094 0.282649L8.83125 1.70314C8.4 1.59685 7.95937 1.53887 7.5 1.53887C7.04063 1.53887 6.6 1.59685 6.17813 1.70314L4.79062 0.282649C4.425 -0.0942163 3.83437 -0.0942163 3.46875 0.282649C3.10312 0.659514 3.10312 1.2683 3.46875 1.64516L4.33125 2.54384C3.6375 3.03666 3.05625 3.6841 2.63437 4.43783H0.9375C0.421875 4.43783 0 4.87267 0 5.40415C0 5.93563 0.421875 6.37047 0.9375 6.37047H1.95938C1.9125 6.68936 1.875 7.00824 1.875 7.33679V8.30311H0.9375C0.421875 8.30311 0 8.73796 0 9.26943C0 9.80091 0.421875 10.2358 0.9375 10.2358H1.875V11.2021C1.875 11.5306 1.9125 11.8495 1.95938 12.1684H0.9375C0.421875 12.1684 0 12.6032 0 13.1347C0 13.6662 0.421875 14.101 0.9375 14.101H2.63437C3.60938 15.8308 5.41875 17 7.5 17C9.58125 17 11.3906 15.8308 12.3656 14.101H14.0625C14.5781 14.101 15 13.6662 15 13.1347C15 12.6032 14.5781 12.1684 14.0625 12.1684H13.0406C13.0875 11.8495 13.125 11.5306 13.125 11.2021V10.2358H14.0625C14.5781 10.2358 15 9.80091 15 9.26943C15 8.73796 14.5781 8.30311 14.0625 8.30311H13.125V7.33679C13.125 7.00824 13.0875 6.68936 13.0406 6.37047H14.0625C14.5781 6.37047 15 5.93563 15 5.40415C15 4.87267 14.5781 4.43783 14.0625 4.43783ZM8.4375 12.1684H6.5625C6.04688 12.1684 5.625 11.7336 5.625 11.2021C5.625 10.6706 6.04688 10.2358 6.5625 10.2358H8.4375C8.95312 10.2358 9.375 10.6706 9.375 11.2021C9.375 11.7336 8.95312 12.1684 8.4375 12.1684ZM8.4375 8.30311H6.5625C6.04688 8.30311 5.625 7.86827 5.625 7.33679C5.625 6.80531 6.04688 6.37047 6.5625 6.37047H8.4375C8.95312 6.37047 9.375 6.80531 9.375 7.33679C9.375 7.86827 8.95312 8.30311 8.4375 8.30311Z" fill="#FF0000"/>
</svg>
