<svg width="24" height="24" viewBox="0 0 24 24" fill="none" xmlns="http://www.w3.org/2000/svg">
<path d="M2.4 0H21.6C22.92 0 23.988 1.08 23.988 2.4L24 24L19.2 19.2H2.4C1.08 19.2 0 18.12 0 16.8V2.4C0 1.08 1.08 0 2.4 0ZM18 8.4H6C5.34 8.4 4.8 8.94 4.8 9.6C4.8 10.26 5.34 10.8 6 10.8H18C18.66 10.8 19.2 10.26 19.2 9.6C19.2 8.94 18.66 8.4 18 8.4ZM10.8 14.4H18C18.66 14.4 19.2 13.86 19.2 13.2C19.2 12.54 18.66 12 18 12H10.8C10.14 12 9.6 12.54 9.6 13.2C9.6 13.86 10.14 14.4 10.8 14.4ZM6 7.2H18C18.66 7.2 19.2 6.66 19.2 6C19.2 5.34 18.66 4.8 18 4.8H6C5.34 4.8 4.8 5.34 4.8 6C4.8 6.66 5.34 7.2 6 7.2Z" fill="#595959"/>
</svg>
