<svg width="12" height="12" viewBox="0 0 12 12" fill="none" xmlns="http://www.w3.org/2000/svg">
<path fill-rule="evenodd" clip-rule="evenodd" d="M11.4685 4.29184C11.1024 4.07 10.5089 4.07 10.1428 4.29184L6.11854 6.73042L2.09431 4.29184C1.72823 4.07 1.13469 4.07 0.768604 4.29184C0.402519 4.51367 0.402519 4.87334 0.768604 5.09518L5.45569 7.93544C5.82177 8.15728 6.41531 8.15728 6.78139 7.93544L11.4685 5.09518C11.8346 4.87334 11.8346 4.51367 11.4685 4.29184Z" fill="#E01E37"/>
<path fill-rule="evenodd" clip-rule="evenodd" d="M11.4685 0.757241C11.1024 0.535403 10.5089 0.535403 10.1428 0.757241L6.11854 3.19583L2.09431 0.757241C1.72823 0.535403 1.13469 0.535403 0.768604 0.757241C0.402519 0.979079 0.402519 1.33875 0.768604 1.56059L5.45569 4.40085C5.82177 4.62269 6.41531 4.62269 6.78139 4.40085L11.4685 1.56059C11.8346 1.33875 11.8346 0.979079 11.4685 0.757241Z" fill="#E01E37"/>
<path fill-rule="evenodd" clip-rule="evenodd" d="M11.4685 7.82638C11.1024 7.60454 10.5089 7.60454 10.1428 7.82638L6.11854 10.265L2.09431 7.82638C1.72823 7.60454 1.13469 7.60454 0.768604 7.82638C0.402519 8.04822 0.402519 8.40789 0.768604 8.62973L5.45569 11.47C5.82177 11.6918 6.41531 11.6918 6.78139 11.47L11.4685 8.62973C11.8346 8.40789 11.8346 8.04822 11.4685 7.82638Z" fill="#E01E37"/>
</svg>
