<svg width="5" height="10" viewBox="0 0 5 10" fill="none" xmlns="http://www.w3.org/2000/svg">
<path d="M0 1C0 0.447715 0.447715 0 1 0C1.55228 0 2 0.447715 2 1C2 1.55228 1.55228 2 1 2C0.447715 2 0 1.55228 0 1Z" fill="#595959"/>
<path d="M3 1C3 0.447715 3.44772 0 4 0C4.55228 0 5 0.447715 5 1C5 1.55228 4.55228 2 4 2C3.44772 2 3 1.55228 3 1Z" fill="#595959"/>
<path d="M3 5C3 4.44772 3.44772 4 4 4C4.55228 4 5 4.44772 5 5C5 5.55228 4.55228 6 4 6C3.44772 6 3 5.55228 3 5Z" fill="#595959"/>
<path d="M0 5C0 4.44772 0.447715 4 1 4C1.55228 4 2 4.44772 2 5C2 5.55228 1.55228 6 1 6C0.447715 6 0 5.55228 0 5Z" fill="#595959"/>
<path d="M0 9C0 8.44772 0.447715 8 1 8C1.55228 8 2 8.44772 2 9C2 9.55228 1.55228 10 1 10C0.447715 10 0 9.55228 0 9Z" fill="#595959"/>
<path d="M3 9C3 8.44772 3.44772 8 4 8C4.55228 8 5 8.44772 5 9C5 9.55228 4.55228 10 4 10C3.44772 10 3 9.55228 3 9Z" fill="#595959"/>
</svg>
