<svg width="9" height="13" viewBox="0 0 9 13" fill="none" xmlns="http://www.w3.org/2000/svg">
<path d="M0.53363 1.59092C0.53363 0.913116 1.21022 0.363647 2.04483 0.363647C2.87944 0.363647 3.55602 0.913116 3.55602 1.59092C3.55602 2.26872 2.87944 2.81819 2.04483 2.81819C1.21022 2.81819 0.53363 2.26872 0.53363 1.59092Z" fill="#F7F7F7"/>
<path d="M5.06722 1.59092C5.06722 0.913116 5.74381 0.363647 6.57842 0.363647C7.41303 0.363647 8.08962 0.913116 8.08962 1.59092C8.08962 2.26872 7.41303 2.81819 6.57842 2.81819C5.74381 2.81819 5.06722 2.26872 5.06722 1.59092Z" fill="#F7F7F7"/>
<path d="M5.06722 6.50001C5.06722 5.82221 5.74381 5.27274 6.57842 5.27274C7.41303 5.27274 8.08962 5.82221 8.08962 6.50001C8.08962 7.17781 7.41303 7.72728 6.57842 7.72728C5.74381 7.72728 5.06722 7.17781 5.06722 6.50001Z" fill="#F7F7F7"/>
<path d="M0.53363 6.50001C0.53363 5.82221 1.21022 5.27274 2.04483 5.27274C2.87944 5.27274 3.55602 5.82221 3.55602 6.50001C3.55602 7.17781 2.87944 7.72728 2.04483 7.72728C1.21022 7.72728 0.53363 7.17781 0.53363 6.50001Z" fill="#F7F7F7"/>
<path d="M0.53363 11.4091C0.53363 10.7313 1.21022 10.1818 2.04483 10.1818C2.87944 10.1818 3.55602 10.7313 3.55602 11.4091C3.55602 12.0869 2.87944 12.6364 2.04483 12.6364C1.21022 12.6364 0.53363 12.0869 0.53363 11.4091Z" fill="#F7F7F7"/>
<path d="M5.06722 11.4091C5.06722 10.7313 5.74381 10.1818 6.57842 10.1818C7.41303 10.1818 8.08962 10.7313 8.08962 11.4091C8.08962 12.0869 7.41303 12.6364 6.57842 12.6364C5.74381 12.6364 5.06722 12.0869 5.06722 11.4091Z" fill="#F7F7F7"/>
</svg>
