<svg width="76" height="30" viewBox="0 0 76 30" fill="none" xmlns="http://www.w3.org/2000/svg">
<rect width="76" height="29.45" rx="4" fill="#0B72D1"/>
<path d="M29.794 19.84C29.122 19.84 28.5247 19.7467 28.002 19.56C27.4794 19.3733 26.98 19.0653 26.504 18.636C26.4014 18.5613 26.322 18.4727 26.266 18.37C26.2194 18.258 26.196 18.146 26.196 18.034C26.196 17.8567 26.2614 17.698 26.392 17.558C26.5227 17.418 26.686 17.348 26.882 17.348C27.0314 17.348 27.1714 17.3993 27.302 17.502C27.6567 17.8287 28.0254 18.076 28.408 18.244C28.8 18.412 29.2574 18.496 29.78 18.496C30.1534 18.496 30.494 18.4353 30.802 18.314C31.1194 18.1927 31.3714 18.0293 31.558 17.824C31.7447 17.6187 31.838 17.3807 31.838 17.11C31.838 16.774 31.74 16.4987 31.544 16.284C31.3574 16.06 31.082 15.878 30.718 15.738C30.3634 15.5887 29.934 15.4627 29.43 15.36C28.9634 15.276 28.5434 15.1593 28.17 15.01C27.806 14.8607 27.4934 14.674 27.232 14.45C26.9707 14.2167 26.77 13.9413 26.63 13.624C26.49 13.3067 26.42 12.938 26.42 12.518C26.42 11.9487 26.5694 11.4587 26.868 11.048C27.1667 10.6373 27.5727 10.32 28.086 10.096C28.5994 9.87201 29.178 9.76001 29.822 9.76001C30.41 9.76001 30.9607 9.85334 31.474 10.04C31.9874 10.2173 32.4027 10.46 32.72 10.768C32.944 10.964 33.056 11.174 33.056 11.398C33.056 11.566 32.986 11.7247 32.846 11.874C32.7154 12.014 32.5614 12.084 32.384 12.084C32.2534 12.084 32.1414 12.0467 32.048 11.972C31.8987 11.8133 31.698 11.6733 31.446 11.552C31.194 11.4213 30.9234 11.314 30.634 11.23C30.354 11.146 30.0834 11.104 29.822 11.104C29.402 11.104 29.0427 11.1647 28.744 11.286C28.4454 11.398 28.2167 11.5567 28.058 11.762C27.8994 11.958 27.82 12.1913 27.82 12.462C27.82 12.7793 27.9087 13.0407 28.086 13.246C28.2727 13.4513 28.5294 13.6193 28.856 13.75C29.1827 13.8713 29.556 13.9833 29.976 14.086C30.4894 14.198 30.9467 14.324 31.348 14.464C31.7587 14.604 32.104 14.786 32.384 15.01C32.664 15.2247 32.8787 15.4953 33.028 15.822C33.1774 16.1487 33.252 16.5547 33.252 17.04C33.252 17.6 33.0934 18.09 32.776 18.51C32.4587 18.93 32.0387 19.2567 31.516 19.49C31.0027 19.7233 30.4287 19.84 29.794 19.84ZM38.5295 12.21C39.1735 12.21 39.6728 12.35 40.0275 12.63C40.3821 12.9007 40.6295 13.2693 40.7695 13.736C40.9188 14.2027 40.9935 14.716 40.9935 15.276V18.986C40.9935 19.1913 40.9235 19.364 40.7835 19.504C40.6528 19.6347 40.4895 19.7 40.2935 19.7C40.0881 19.7 39.9201 19.6347 39.7895 19.504C39.6588 19.364 39.5935 19.1913 39.5935 18.986V15.276C39.5935 14.9493 39.5468 14.6507 39.4535 14.38C39.3695 14.1093 39.2155 13.8947 38.9915 13.736C38.7768 13.5773 38.4735 13.498 38.0815 13.498C37.7175 13.498 37.3908 13.5773 37.1015 13.736C36.8215 13.8947 36.6021 14.1093 36.4435 14.38C36.2941 14.6507 36.2195 14.9493 36.2195 15.276V18.986C36.2195 19.1913 36.1495 19.364 36.0095 19.504C35.8788 19.6347 35.7155 19.7 35.5195 19.7C35.3141 19.7 35.1461 19.6347 35.0155 19.504C34.8848 19.364 34.8195 19.1913 34.8195 18.986V10.054C34.8195 9.84868 34.8848 9.68068 35.0155 9.55001C35.1461 9.41001 35.3141 9.34001 35.5195 9.34001C35.7155 9.34001 35.8788 9.41001 36.0095 9.55001C36.1495 9.68068 36.2195 9.84868 36.2195 10.054V13.876L35.9675 14.016C36.0328 13.8107 36.1401 13.6007 36.2895 13.386C36.4481 13.1713 36.6395 12.9753 36.8635 12.798C37.0968 12.6207 37.3535 12.4807 37.6335 12.378C37.9135 12.266 38.2121 12.21 38.5295 12.21ZM48.9746 12.224C49.1799 12.224 49.3479 12.294 49.4786 12.434C49.6092 12.5647 49.6746 12.7327 49.6746 12.938V18.986C49.6746 19.1913 49.6092 19.364 49.4786 19.504C49.3479 19.6347 49.1799 19.7 48.9746 19.7C48.7786 19.7 48.6106 19.6347 48.4706 19.504C48.3399 19.364 48.2746 19.1913 48.2746 18.986V17.978L48.5686 18.02C48.5686 18.188 48.4986 18.3747 48.3586 18.58C48.2279 18.7853 48.0459 18.986 47.8126 19.182C47.5792 19.3687 47.3039 19.5273 46.9866 19.658C46.6692 19.7793 46.3286 19.84 45.9646 19.84C45.3206 19.84 44.7419 19.6767 44.2286 19.35C43.7152 19.014 43.3092 18.5567 43.0106 17.978C42.7119 17.3993 42.5626 16.7413 42.5626 16.004C42.5626 15.248 42.7119 14.5853 43.0106 14.016C43.3092 13.4373 43.7106 12.9847 44.2146 12.658C44.7279 12.3313 45.2972 12.168 45.9226 12.168C46.3239 12.168 46.6926 12.2333 47.0286 12.364C47.3739 12.4947 47.6726 12.6627 47.9246 12.868C48.1766 13.0733 48.3679 13.2927 48.4986 13.526C48.6386 13.75 48.7086 13.9647 48.7086 14.17L48.2746 14.212V12.938C48.2746 12.742 48.3399 12.574 48.4706 12.434C48.6106 12.294 48.7786 12.224 48.9746 12.224ZM46.1186 18.552C46.5572 18.552 46.9446 18.44 47.2806 18.216C47.6166 17.992 47.8779 17.6887 48.0646 17.306C48.2512 16.914 48.3446 16.48 48.3446 16.004C48.3446 15.5187 48.2512 15.0847 48.0646 14.702C47.8779 14.3193 47.6166 14.016 47.2806 13.792C46.9446 13.568 46.5572 13.456 46.1186 13.456C45.6892 13.456 45.3066 13.568 44.9706 13.792C44.6439 14.016 44.3826 14.3193 44.1866 14.702C43.9999 15.0847 43.9066 15.5187 43.9066 16.004C43.9066 16.48 43.9999 16.914 44.1866 17.306C44.3826 17.6887 44.6439 17.992 44.9706 18.216C45.3066 18.44 45.6892 18.552 46.1186 18.552ZM52.3359 19.7C52.1306 19.7 51.9626 19.6347 51.8319 19.504C51.7012 19.364 51.6359 19.1913 51.6359 18.986V13.05C51.6359 12.8447 51.7012 12.6767 51.8319 12.546C51.9626 12.406 52.1306 12.336 52.3359 12.336C52.5319 12.336 52.6952 12.406 52.8259 12.546C52.9659 12.6767 53.0359 12.8447 53.0359 13.05V14.618L52.8959 14.016C52.9706 13.7547 53.0826 13.512 53.2319 13.288C53.3906 13.064 53.5772 12.868 53.7919 12.7C54.0066 12.532 54.2446 12.4013 54.5059 12.308C54.7766 12.2147 55.0566 12.168 55.3459 12.168C55.5886 12.168 55.7986 12.2333 55.9759 12.364C56.1532 12.4947 56.2419 12.658 56.2419 12.854C56.2419 13.106 56.1766 13.2927 56.0459 13.414C55.9152 13.526 55.7706 13.582 55.6119 13.582C55.4719 13.582 55.3366 13.554 55.2059 13.498C55.0752 13.4327 54.9212 13.4 54.7439 13.4C54.5479 13.4 54.3472 13.4513 54.1419 13.554C53.9366 13.6567 53.7499 13.8107 53.5819 14.016C53.4139 14.212 53.2786 14.4453 53.1759 14.716C53.0826 14.9867 53.0359 15.29 53.0359 15.626V18.986C53.0359 19.1913 52.9659 19.364 52.8259 19.504C52.6952 19.6347 52.5319 19.7 52.3359 19.7ZM60.603 19.84C59.8283 19.84 59.1563 19.6813 58.587 19.364C58.0177 19.0373 57.5743 18.594 57.257 18.034C56.949 17.4647 56.795 16.816 56.795 16.088C56.795 15.2667 56.9583 14.5667 57.285 13.988C57.621 13.4 58.055 12.952 58.587 12.644C59.119 12.3267 59.6837 12.168 60.281 12.168C60.7383 12.168 61.1723 12.2613 61.583 12.448C61.9937 12.6253 62.3577 12.8773 62.675 13.204C63.0017 13.5213 63.2583 13.8993 63.445 14.338C63.6317 14.7673 63.7297 15.2387 63.739 15.752C63.7297 15.9387 63.655 16.0927 63.515 16.214C63.375 16.3353 63.2117 16.396 63.025 16.396H57.579L57.243 15.206H62.507L62.241 15.458V15.108C62.2223 14.7813 62.115 14.4967 61.919 14.254C61.723 14.002 61.4803 13.8107 61.191 13.68C60.9017 13.54 60.5983 13.47 60.281 13.47C60.001 13.47 59.7303 13.5167 59.469 13.61C59.217 13.694 58.9883 13.834 58.783 14.03C58.587 14.226 58.4283 14.4873 58.307 14.814C58.195 15.1313 58.139 15.528 58.139 16.004C58.139 16.5173 58.2463 16.9653 58.461 17.348C58.6757 17.7307 58.965 18.0293 59.329 18.244C59.693 18.4493 60.0943 18.552 60.533 18.552C60.8783 18.552 61.163 18.5193 61.387 18.454C61.611 18.3793 61.7977 18.2907 61.947 18.188C62.0963 18.0853 62.227 17.9873 62.339 17.894C62.479 17.81 62.619 17.768 62.759 17.768C62.927 17.768 63.067 17.8287 63.179 17.95C63.291 18.062 63.347 18.1973 63.347 18.356C63.347 18.5613 63.2443 18.748 63.039 18.916C62.787 19.1587 62.437 19.3733 61.989 19.56C61.5503 19.7467 61.0883 19.84 60.603 19.84Z" fill="white"/>
<path d="M19.6333 17.3938C19.0718 17.3938 18.5693 17.6227 18.1851 17.9813L12.9168 14.8147C12.9538 14.6392 12.9833 14.4636 12.9833 14.2805C12.9833 14.0974 12.9538 13.9219 12.9168 13.7464L18.126 10.6102C18.525 10.9918 19.0496 11.2283 19.6333 11.2283C20.8599 11.2283 21.85 10.2058 21.85 8.93915C21.85 7.67248 20.8599 6.64999 19.6333 6.64999C18.4068 6.64999 17.4167 7.67248 17.4167 8.93915C17.4167 9.12228 17.4462 9.29779 17.4832 9.47329L12.274 12.6094C11.875 12.2279 11.3504 11.9914 10.7667 11.9914C9.5401 11.9914 8.54999 13.0138 8.54999 14.2805C8.54999 15.5472 9.5401 16.5697 10.7667 16.5697C11.3504 16.5697 11.875 16.3331 12.274 15.9516L17.5349 19.1259C17.4979 19.2861 17.4758 19.454 17.4758 19.6219C17.4758 20.8504 18.4437 21.85 19.6333 21.85C20.8229 21.85 21.7909 20.8504 21.7909 19.6219C21.7909 18.3934 20.8229 17.3938 19.6333 17.3938Z" fill="white"/>
</svg>
