<svg width="41" height="29" viewBox="0 0 41 29" fill="none" xmlns="http://www.w3.org/2000/svg">
<rect x="0.25" y="0.25" width="40.5" height="28.5" rx="14.25" fill="white" stroke="#B7B7B7" stroke-width="0.5"/>
<path d="M18 18.9018H22C22.55 18.9018 23 18.4407 23 17.8772V12.7544H24.59C25.48 12.7544 25.93 11.6479 25.3 11.0024L20.71 6.29968C20.32 5.90011 19.69 5.90011 19.3 6.29968L14.71 11.0024C14.08 11.6479 14.52 12.7544 15.41 12.7544H17V17.8772C17 18.4407 17.45 18.9018 18 18.9018ZM14 20.9509H26C26.55 20.9509 27 21.4119 27 21.9754C27 22.5389 26.55 23 26 23H14C13.45 23 13 22.5389 13 21.9754C13 21.4119 13.45 20.9509 14 20.9509Z" fill="#0B72D1"/>
<path d="M34.5 17L36.6651 13.25H32.3349L34.5 17Z" fill="#0B72D1"/>
</svg>
