<svg width="2" height="10" viewBox="0 0 2 10" fill="none" xmlns="http://www.w3.org/2000/svg">
<path d="M2 8.96154C2 9.53506 1.55228 10 1 10C0.447715 10 0 9.53506 0 8.96154C0 8.38801 0.447715 7.92308 1 7.92308C1.55228 7.92308 2 8.38801 2 8.96154Z" fill="#F7F7F7"/>
<path d="M2 4.96154C2 5.53506 1.55228 6 1 6C0.447715 6 0 5.53506 0 4.96154C0 4.38801 0.447715 3.92308 1 3.92308C1.55228 3.92308 2 4.38801 2 4.96154Z" fill="#F7F7F7"/>
<path d="M2 1.03846C2 1.61199 1.55228 2.07692 1 2.07692C0.447715 2.07692 0 1.61199 0 1.03846C0 0.464935 0.447715 0 1 0C1.55228 0 2 0.464935 2 1.03846Z" fill="#F7F7F7"/>
</svg>
